<svg xmlns="http://www.w3.org/2000/svg" viewBox="0 0 278.07 37.04"><defs><style>.cls-1{fill:#5060cd;}</style></defs><title>copy</title><g id="レイヤー_2" data-name="レイヤー 2"><g id="レイヤー_1-2" data-name="レイヤー 1"><path class="cls-1" d="M140.12,20.26a.64.64,0,0,0-.18-.38c-1.32-1.28-2.4-2.76-4.64-3.18-.71-.14-.82-.66-.27-1a3.25,3.25,0,0,0,1.69-2.33.93.93,0,0,1,.2-.38,7.07,7.07,0,0,0,1-3.68,4.61,4.61,0,0,0-1.12-2.65,10.7,10.7,0,0,0-2.19-2c-.51-.41-1.11-.73-1.62-1.14a2.36,2.36,0,0,0-1.46-.71A4.67,4.67,0,0,1,130,2.39a12.52,12.52,0,0,0-4.19-1.2c-.62,0-1.23-.27-1.84-.3a5.6,5.6,0,0,0-3,.47,8.4,8.4,0,0,1-1.11.47c-.31.11-.65.17-1,.3-1.15.46-1,1.32-1,2.15a2.8,2.8,0,0,1,.08.9c-.19.63-.5,1.23-.74,1.84a1.49,1.49,0,0,0,.37,1.65,1.46,1.46,0,0,1,.41.82c.05,1.23,0,2.48.08,3.71s0,2.51.73,3.67a.37.37,0,0,1,0,.21,7.11,7.11,0,0,0,.62,3.08c.55,1.75,1.31,3.49,1.25,5.33,0,1.09.4,2.19-.08,3.27a2.25,2.25,0,0,0,.13,1.81c.26.72.4,1.47.65,2.19s.61,1.69,2,1.77a3.1,3.1,0,0,1,.84.24,3.39,3.39,0,0,0,3.84-.56c.41-.34.8-.71,1.18-1.05a28.51,28.51,0,0,0,6.37-1.23,5.89,5.89,0,0,0,3-1.94c.46-.65,1-1.26,1.46-1.91s1.24-1.32,1.34-2.19.22-2,.28-3a.81.81,0,0,0-.32-.61A3,3,0,0,1,140.12,20.26ZM125.49,15a4.88,4.88,0,0,1-.74-2.85,29,29,0,0,1,.13-3.48,11.93,11.93,0,0,1,.45-2.2c.06-.18.46-.37.74-.43a3.42,3.42,0,0,1,2.81.62c2.39,1.74,2.53,1.88,1.61,3.9-.32.72-.48,1.47-1.44,1.84a.64.64,0,0,0-.26.23A6.66,6.66,0,0,1,125.49,15Zm7.44,11.09a3.63,3.63,0,0,0-.78.88A5.26,5.26,0,0,1,129,28.07a1.47,1.47,0,0,1-1.12-1.16,2.14,2.14,0,0,1,0-.62,9.52,9.52,0,0,0-.79-3.2,6.24,6.24,0,0,1-.21-1.12,9.26,9.26,0,0,1,6.54-.62,3.76,3.76,0,0,1,.61,2.5A2.41,2.41,0,0,1,132.93,26.07Zm113-20.67a1.11,1.11,0,0,1,0,1.33,3.87,3.87,0,0,0-.21,1.81,25.2,25.2,0,0,0-.09,3.25c.15,1.81-.53,3.58-.31,5.39a13.66,13.66,0,0,1-.41,4.26,7.41,7.41,0,0,0,.07,2.25c.14,1.36.38,2.71.47,4.07a2.22,2.22,0,0,1-.5,1.14c-.21.34-.34.82-1,.73a.37.37,0,0,0-.22.08c-1.6,1.18-3.15.49-4.55-.22a6,6,0,0,1-2.82-2.16A6.38,6.38,0,0,0,235,26.09c-.25-.22-.58-.42-.71-.69-.64-1.28-2-2.18-2.73-3.4a1.14,1.14,0,0,0-1.3-.53c-.06,1.05-.12,2.11-.17,3.16,0,.82-.09,1.63-.07,2.44s.17,1.78.14,2.67a2,2,0,0,1-.76,1.87,3.71,3.71,0,0,1-4.09.22,6.69,6.69,0,0,1-2.18-1.56,3.12,3.12,0,0,1-.52-1.85,14.33,14.33,0,0,0,0-2.54c-.16-.69.31-1.46.37-2.2.12-1.5.22-3,.2-4.52a30.83,30.83,0,0,1,.46-5.42c.08-.51.12-1.1-.49-1.42a1.89,1.89,0,0,1-.93-1.66,1.12,1.12,0,0,0-.3-.73c-.46-.5-.43-1,.18-1.34,1.52-.88,1.61-2.1,1.44-3.43a1,1,0,0,1,.15-.65,3.86,3.86,0,0,1,2.4-1.22.88.88,0,0,1,.51,0,16.87,16.87,0,0,1,2.66,1.31,4.47,4.47,0,0,1,1.19,1.63c.15.29,0,.66,0,1a13.82,13.82,0,0,0,.07,2.88,5.46,5.46,0,0,0,1.23,2.43c1.36,1.45,2.07,3.22,3.57,4.59.58.53,1.13,1.09,1.65,1.66s.84,1,1.43,1.72a19.71,19.71,0,0,1-.32-2.8,12.68,12.68,0,0,1,.39-2.43c.11-.53.47-1,.06-1.6-.1-.15,0-.4,0-.61,0-1,0-1.92,0-2.87s0-1.65,0-2.47c0-.51,0-1,0-1.52a1.25,1.25,0,0,0-.28-.55.84.84,0,0,1,.16-1.3l.08-.08c1.8-2,3.1-2.26,5.79-1.09a1.9,1.9,0,0,1,1.24,1.23A3.58,3.58,0,0,0,245.92,5.4ZM268,7.63c-1.51-1.14-3.46-1.77-5-2.9-.13-.11-.4-.08-.6-.14a14.87,14.87,0,0,0-3.71-.72,1.59,1.59,0,0,1-.77-.32,2.25,2.25,0,0,0-1.9-.31c-.93.22-1.88.4-2.79.67a2.86,2.86,0,0,0-1.84,2.36c.08.55.37,1.09.47,1.65a12.9,12.9,0,0,1,.32,2.75c-.07,1.44-.31,2.87-.51,4.3-.05.35-.2.65.18,1,.14.12.12.38.12.58,0,.55-.07,1.09,0,1.64a28.71,28.71,0,0,1,.31,3.45,18,18,0,0,0,1.59,7.79c.49,1.17,2.69,2.09,4.12,1.71a6,6,0,0,0,1.46-.5,7.16,7.16,0,0,0,1.1-1.05c-.1-.23-.23-.52-.36-.83a1.42,1.42,0,0,1,.22-.13c.21,0,.42-.07.63-.09,1.63-.19,3.08-.55,4-1.81.76-1,1.9-1.83,2.68-2.83a11.46,11.46,0,0,0,1.13-2.37,7.81,7.81,0,0,1,1.53-2.67,2.45,2.45,0,0,0,1-1.72,18.19,18.19,0,0,0-.73-5.61A8,8,0,0,0,268,7.63Zm-3.94,8.29a6.63,6.63,0,0,1-1.74,2.72.75.75,0,0,0-.27.55,2.94,2.94,0,0,1-1.57,2.47,2.87,2.87,0,0,0-.46.56c-.13.16-.77-2.12-.82-2.32a17.72,17.72,0,0,1-.6-3.72A26.08,26.08,0,0,1,259,13a19.22,19.22,0,0,0,.05-2.63c0-.68.24-.91,1-.64,2,.7,3.68,1.69,4.24,3.49A3.6,3.6,0,0,1,264.08,15.92Zm-48.47-2.1c-.46-.92-.21-2.06-1.35-2.78a.31.31,0,0,1-.12-.18c-.08-.66-.77-1-1.22-1.41s-.72-.66-1.09-1c-1.18-1-2.27-2.14-4.13-2.44a8.58,8.58,0,0,1-2-.56c-1-.45-2.18-.13-3.22-.43-.13,0-.32.07-.48.1-.53.09-1.07.19-1.6.24a3.76,3.76,0,0,0-2.41.78c-.93,1-2.25,1.85-2.76,3.13a8,8,0,0,1-.52.82,5,5,0,0,0-.31.76l-.48,1.46a10.21,10.21,0,0,0-.55,1.79A34.13,34.13,0,0,0,193,18a11.28,11.28,0,0,0,.25,3.18A9.66,9.66,0,0,0,197,26.57c.18.13.25.37.43.49.88.63,1.32,1.71,2.76,1.76a.36.36,0,0,1,.22.09c.7.63,1.81.64,2.61,1.13a2.61,2.61,0,0,0,1.45.33A18.15,18.15,0,0,0,210,29.13c1.05-.41,2-1,3.07-1.48,0-.23,0-.49,0-.75a3.33,3.33,0,0,0,1.77-1.83,20.76,20.76,0,0,0,1.61-4.3,14.42,14.42,0,0,0-.15-3.64A8.41,8.41,0,0,0,215.61,13.82Zm-7.39,8.28a8.62,8.62,0,0,1-2,2,6.68,6.68,0,0,1-2.06.71,1,1,0,0,1-.7-.18,9.15,9.15,0,0,1-1.58-1.29,10,10,0,0,1-.94-1.53,1.09,1.09,0,0,0-.38-.39c-.74-.42-.68-1.07-.7-1.66,0-.75.06-1.5.1-2.25a18.41,18.41,0,0,1,1.2-5.13,3.89,3.89,0,0,1,3.12-2.13,2.18,2.18,0,0,1,1.48.45,9.63,9.63,0,0,1,2.75,2.8,8.29,8.29,0,0,1,.55,1.66c.23,1,.39,2,.59,3A8.24,8.24,0,0,1,208.22,22.1ZM46.88,13.77a10,10,0,0,0-.52-2.24c-.55-1.4-2-1.74-3.09-2.6-1.42-1.15-2.62-2.48-4.35-3.19S35.13,5.55,33.35,5a13.17,13.17,0,0,0-3,.25A2.94,2.94,0,0,0,28,6.68c-.22.38-.27.79-.53,1.2-.53.85-1.4,1.29-1.9,2.22a5,5,0,0,0-.31.76l-.48,1.46a10.83,10.83,0,0,0-.55,1.79C24,16,24,18,23.66,19.84s1,2.75,1.93,4.34a7.41,7.41,0,0,0,1,1.81,12,12,0,0,0,2.5,1.58c1.79,1.17,2.14,2.28,4.6,2.42a11.4,11.4,0,0,0,2.55-.11c1.32-.23,1.69-1,2.77-1.45.81-.34,2-.19,2.88-.45a5.45,5.45,0,0,0,3.81-2.91,20.76,20.76,0,0,0,1.61-4.3,14,14,0,0,0-.15-3.64C47.11,16.15,47.05,14.93,46.88,13.77Zm-7.66,8.44-.11.11a10,10,0,0,1-4,2.45,1,1,0,0,1-.7-.18,9.15,9.15,0,0,1-1.58-1.29,10,10,0,0,1-.94-1.53c-.69-1.12-1-1.16-1.06-2.59-.08-1.17-.1-2.37-.22-3.55-.06-.59-.49-1.35-.28-1.94s1.08-1.11,1.45-1.54c1.6-1.85,3.23-2.09,5.44-1.73,1.93.3,2.87,2.47,3.4,4.11.46,1.46.74,4.16.05,5.56A7.77,7.77,0,0,1,39.22,22.21ZM73,13.9c-.69-2.31-1.93-3.75-3.32-5.6a11.16,11.16,0,0,0-1.38-1.53A5,5,0,0,0,64.82,5.3a29.9,29.9,0,0,1-3.14,0c-.72-.08-1.38-.39-2.09-.44a7.83,7.83,0,0,0-4.76,1.67,7.25,7.25,0,0,0-1.6,2c-.23.31-2.28,2-2.21,2.23s.14.47.22.72a3.25,3.25,0,0,0-1.14,2.28,20.26,20.26,0,0,0-.25,4.58c.16,1.5,1.06,2.64,1.49,4,.36,1.13.13,1.9.8,2.95,1.26,2,2.84,2.63,4.84,3.49,2.46,1.07,4.94.44,7.61.45a8.3,8.3,0,0,0,5.58-2.3c.86-.73,2.16-.95,2.88-1.65s.78-3,.82-4.13c0-.52,0-1,0-1.54a10.71,10.71,0,0,0,0-1.88A38.27,38.27,0,0,0,73,13.9Zm-5.81,7.91a6.72,6.72,0,0,1-.78,1.73c-1.11,1.8-3.78,1.42-5.25.33-.76-.56-2.23-1.25-2.76-2a20.65,20.65,0,0,1-1.14-3.09,6.07,6.07,0,0,1,0-4.2,8.5,8.5,0,0,1,1.3-2.47,4.16,4.16,0,0,1,5.07-1.24c1,.48,2,.35,2.69,1.37s.34,1.73.26,2.82a10.56,10.56,0,0,0,.57,2.8A8.72,8.72,0,0,1,67.18,21.81Zm98.64-15a1.93,1.93,0,0,1-1.36,1.84,5.85,5.85,0,0,1-1.6.2c-.38,0-.76,0-1.14,0l0-.16-3.12.37a3.25,3.25,0,0,1-.88,0,4.3,4.3,0,0,0-2.64.57,1.88,1.88,0,0,0-.74,2c.21.84.4,1.68.57,2.53a2,2,0,0,1,0,.77c-.11.5.1.82.7.88,1.13.11,2.27.19,3.4.27a3,3,0,0,1,2.09.61,1.12,1.12,0,0,0,.53.27,2,2,0,0,1,1.6,1.43c.33.73-.16,1.29-.38,1.88s-.9.45-1.46.4c-1.23-.09-2.46-.15-3.68-.31a6.18,6.18,0,0,0-2.93.52,1.41,1.41,0,0,0-.77.87,15.49,15.49,0,0,0-.41,2.34c0,.19.17.38.23.58A4,4,0,0,1,154,26c-.2,1.72,1.24,2.18,2.68,2.17s2.63-.14,3.94-.08a4.87,4.87,0,0,1,3.45,1.57,1.86,1.86,0,0,1-.25,2.26,2.29,2.29,0,0,1-2,.83,1.19,1.19,0,0,0-.77.3,1.76,1.76,0,0,1-2,.3,1,1,0,0,0-.49-.1c-1.52.53-3-.25-4.46-.25a16,16,0,0,1-3.76-.86,5.7,5.7,0,0,1-1.16-.41,2.39,2.39,0,0,1-1-.64,22.25,22.25,0,0,1-1.59-3.11,3.85,3.85,0,0,1,0-1.62c.05-1.37.12-2.73.18-4.1,0-.14-.07-.32,0-.41.71-.74.41-1.64.61-2.46a1.49,1.49,0,0,0,0-.81,1,1,0,0,1,.39-1.4c.06,0,.13-.12.12-.18-.09-.87.46-1.79-.17-2.6a1.62,1.62,0,0,1-.3-1.16c0-1.1,0-2.19,0-3.29,0-.89-.17-1.77-.15-2.66a2.25,2.25,0,0,1,.76-1.8c.26-.22.45-.5.73-.71a3,3,0,0,1,1-.59,21.33,21.33,0,0,1,4.86-.5l3.18-.14a10.84,10.84,0,0,1,1.14,0c.66,0,1.31.09,2,.09a6.87,6.87,0,0,1,2.31.75c.34.13.64.34,1,.46A2,2,0,0,1,165.82,6.78Zm26.57-.66a2.53,2.53,0,0,1-.66.69,7.93,7.93,0,0,0-1.11.81c-1.26,1.45-2.47,2.93-3.7,4.41a6.14,6.14,0,0,0-1,1.18,4.08,4.08,0,0,0-.11,1.37c-1.82,1.17-2.09,2.93-1.81,4.79-.48.41-.94.81-1.42,1.19A1.59,1.59,0,0,0,182,22c.05.75.14,1.51.24,2.26a1.58,1.58,0,0,0,.22.8,3.58,3.58,0,0,1,.55,2.18c0,.2,0,.45.09.6.61.81.35,1.76.72,2.61a.86.86,0,0,1-.07.58c0,.12-.31.21-.31.31.07.88-.77,1-1.49,1.3a2.2,2.2,0,0,1-2.34-.16,1.48,1.48,0,0,0-.67-.27,2.31,2.31,0,0,1-1.77-1.05c-.48-.82-1.19-1.57-1-2.58a3.29,3.29,0,0,0,0-1.43,5.43,5.43,0,0,0-.79-1.21,4.64,4.64,0,0,0-.1-2.86,7.3,7.3,0,0,1-.15-2.56,2.43,2.43,0,0,0-1-1.93,1.15,1.15,0,0,1-.53-1A5.38,5.38,0,0,0,172,14a6.68,6.68,0,0,1-1.11-2.59,11.08,11.08,0,0,0-1.85-4.14,3.26,3.26,0,0,1-.4-2.7,1.24,1.24,0,0,1,.57-.64,3.69,3.69,0,0,1,2.68-.4,5.74,5.74,0,0,1,4.33,3.06,29.18,29.18,0,0,1,1.38,3.71c.15.44.42.74,1.2.8.45-.56.91-1.2,1.44-1.79s1.33-1.25,1.86-1.94A25.44,25.44,0,0,0,184,4.48,4,4,0,0,1,186.5,2.2a5.68,5.68,0,0,0,1.18-.63,1.94,1.94,0,0,1,.53.13c1.06.57,2.11,1.15,3.16,1.75A2.39,2.39,0,0,1,192.39,6.12Zm-169,27.51a3,3,0,0,1-3.65,2.59,10.92,10.92,0,0,0-2-.31c-1.91,0-3.81.16-5.74.16a25.76,25.76,0,0,0-6.47.65c-1.35.33-3.31.66-4.48-.41C-.59,34.84.39,28.68.78,26.48,1.21,24,.19,21.89.56,19.34s1.21-4.83.67-7.29C.85,10.34,0,9.26.12,7.31c.06-1.16-.48-3,.33-4,1-1.23,3.52-.59,4.88-.59,1-.57,1.4-.27,1.93.25C10,5.74,7,9.11,7,12.09c0,5.13-1,10.24-.81,15.44.1,2.44.79,2.16,2.85,1.62s3.85.46,5.75,0c1.73-.39,3.39-1.74,5.26-1.43.36.07,1.24.09,1.48.42s-.25.88.07,1.37c.17.26.71.12.88.32s.13.36.24.56A5.45,5.45,0,0,1,23.38,33.63ZM94,16.36c-1.78,1.8-1.42,2.67-.21,4.65.22.35,0,.47.33.77s.8.25,1.07.49c.57.51.44,1.16.72,1.78,1.22,2.7,4.76,4.72,5,7.89.11,1.56-.61,1.33-2.11,1.38-.89,0-2.64.35-3.42,0-1.49-.66-2.52-3.28-3.12-4.68a18.54,18.54,0,0,0-2.2-3.2A21.7,21.7,0,0,1,88.25,23c-.77-1.39-1.74-1.16-1.6.48a18.18,18.18,0,0,1-.17,3.06c-.1,1.38.53,2.72.33,4.11-.11.78-.23,1.71-.31,2.47-.17,1.61-2.26,1.08-3.49,1.08-.32,0-3.58.13-3.61-.32-.12-2.56.82-5,.43-7.71a29.49,29.49,0,0,1-.55-7.55c.22-2.24-.57-4.17-.46-6.4.05-1,.49-1.93.57-2.9s-.65-1.56-.89-2.5a9.8,9.8,0,0,1,0-2.86c0-.88-.92-2.57-.31-3.38C78.63-.06,79.23.45,80,.41c.39,0,.82-.27,1.22-.33a14.32,14.32,0,0,1,3,0c.87.07,1.93.23,1.89,1.27,0,.43-.5.76-.56,1.17a6.7,6.7,0,0,0,.22,1.29,30.33,30.33,0,0,1,0,5.22A25.41,25.41,0,0,0,86,12c.06,1.25-.57,4.52,1.62,3a13,13,0,0,0,2.81-2.88c.41-.52.89-1,1.26-1.6a15,15,0,0,1,.83-1.65c.25-.28.72-.24,1-.46.71-.67.49-1.77.74-2.67.37-1.29,1.18-1.44,1.82-2.45.51-.81.66-1.76,1.63-2.09a6.34,6.34,0,0,1,2.83.24,10.86,10.86,0,0,1,2.82.57c.31.17.59.7.82,1-.81,2.79-3.24,4.4-4.69,6.77A37,37,0,0,1,94,16.36Zm184,13.88A2.89,2.89,0,0,1,274.77,33a4.61,4.61,0,0,1-1.73-.54c-.45-.4-.18-.84-.44-1.31-.72-1.32-1.94-.86-1.12-2.54a6.51,6.51,0,0,1,2-2.69c1.68-1.08,1.53.07,2.55,1,.74.7,1.21.52,1.69,1.58A3.56,3.56,0,0,1,278.06,30.24Z"/></g></g></svg>